<svg width="219" height="129" viewBox="0 0 219 129" fill="none" xmlns="http://www.w3.org/2000/svg">
<g opacity="0.65">
<path fill-rule="evenodd" clip-rule="evenodd" d="M108.258 57.4481C101.834 30.9652 75.1586 14.7037 48.6756 21.1272C22.1927 27.5506 5.9313 54.2264 12.3547 80.7093C18.7781 107.192 45.454 123.454 71.9369 117.03C98.4198 110.607 114.681 83.931 108.258 57.4481ZM107.379 56.2985C101.214 30.8806 75.6111 15.273 50.1931 21.4381C24.7751 27.6033 9.1676 53.2064 15.3327 78.6244C21.4979 104.042 47.101 119.65 72.519 113.485C97.937 107.32 113.545 81.7165 107.379 56.2985Z" fill="url(#paint0_angular_4945_3643)"/>
<path fill-rule="evenodd" clip-rule="evenodd" d="M25.3415 73.7121C32.3945 100.034 59.4505 115.655 85.7727 108.602C112.095 101.549 127.716 74.4931 120.663 48.1708C113.61 21.8486 86.5537 6.22783 60.2315 13.2808C33.9092 20.3339 18.2885 47.3899 25.3415 73.7121ZM25.7321 73.7637C32.5171 99.0858 58.5451 114.113 83.8672 107.328C109.189 100.543 124.217 74.515 117.431 49.1929C110.646 23.8708 84.6185 8.84359 59.2964 15.6286C33.9743 22.4137 18.947 48.4416 25.7321 73.7637Z" fill="url(#paint1_angular_4945_3643)"/>
<path fill-rule="evenodd" clip-rule="evenodd" d="M48.059 107.297C74.6012 113.471 101.123 96.9588 107.297 70.4167C113.471 43.8745 96.959 17.3528 70.4168 11.1789C43.8746 5.00496 17.3529 21.5167 11.179 48.0589C5.00508 74.6011 21.5168 101.123 48.059 107.297ZM48.3791 107.043C73.9247 112.985 99.4506 97.0934 105.393 71.5478C111.335 46.0022 95.4431 20.4764 69.8975 14.5343C44.3518 8.59214 18.826 24.4839 12.8839 50.0295C6.94176 75.5751 22.8335 101.101 48.3791 107.043Z" fill="url(#paint2_angular_4945_3643)"/>
</g>
<path d="M69.2368 48.194H101.242V58.2695H79.7753V71.2812H101.242V81.3567H79.7753V104.761H69.2368V48.194Z" fill="white"/>
<path d="M107.049 47.4265H117.588V104.761H107.049V47.4265Z" fill="white"/>
<path d="M146.096 105.686C142.539 105.686 139.286 105.08 136.337 103.871C133.395 102.653 130.879 100.99 128.784 98.876C126.688 96.7562 125.059 94.2647 123.898 91.3956C122.735 88.5295 122.156 85.4685 122.156 82.2095C122.156 78.9048 122.759 75.8072 123.972 72.9137C125.19 70.0232 126.859 67.5165 128.979 65.3967C131.099 63.2768 133.59 61.6016 136.459 60.365C139.325 59.1223 142.411 58.501 145.719 58.501C149.072 58.501 152.182 59.0827 155.051 60.2432C157.917 61.4067 160.381 63.0331 162.446 65.1286C164.517 67.218 166.131 69.6821 167.295 72.5238C168.455 75.3686 169.037 78.4662 169.037 81.8196V85.7791H132.159C132.88 88.9803 134.455 91.5631 136.886 93.5276C139.313 95.4861 142.383 96.4638 146.096 96.4638C149.045 96.4638 151.603 95.7419 153.772 94.2952C155.94 92.8515 157.567 90.9143 158.657 88.4838L167.258 93.4423C165.291 97.1156 162.537 100.076 158.998 102.324C155.465 104.566 151.164 105.686 146.096 105.686ZM145.719 67.7236C142.566 67.7236 139.84 68.5765 137.544 70.2821C135.244 71.9878 133.627 74.2356 132.695 77.0194H158.426C157.646 73.9736 156.141 71.6649 153.918 70.0872C151.7 68.5125 148.965 67.7236 145.719 67.7236Z" fill="white"/>
<path d="M188.097 81.6734L171.674 59.4269H184.454L194.761 73.8396L204.983 59.4269H217.385L201.109 81.8196L218.47 104.761H205.69L194.603 89.6534L183.833 104.761H171.053L188.097 81.6734Z" fill="white"/>
<defs>
<radialGradient id="paint0_angular_4945_3643" cx="0" cy="0" r="1" gradientUnits="userSpaceOnUse" gradientTransform="translate(63.503 68.3033) rotate(170.321) scale(63.3075 67.0027)">
<stop offset="0.105344" stop-color="#6528C9"/>
<stop offset="0.190417" stop-color="#D130D0"/>
<stop offset="0.276765" stop-color="#FF542F"/>
<stop offset="0.395025" stop-color="#FEA810"/>
<stop offset="0.499299" stop-color="#DCC419"/>
<stop offset="0.656296" stop-color="#35D644"/>
<stop offset="0.778413" stop-color="#02CAED"/>
<stop offset="0.912275" stop-color="#0785DB"/>
<stop offset="1" stop-color="#0B62D8"/>
</radialGradient>
<radialGradient id="paint1_angular_4945_3643" cx="0" cy="0" r="1" gradientUnits="userSpaceOnUse" gradientTransform="translate(69.8247 61.7928) rotate(99.3883) scale(78.5126 83.0954)">
<stop offset="0.105344" stop-color="#6528C9"/>
<stop offset="0.190417" stop-color="#D130D0"/>
<stop offset="0.276765" stop-color="#FF542F"/>
<stop offset="0.395025" stop-color="#FEA810"/>
<stop offset="0.499299" stop-color="#DCC419"/>
<stop offset="0.630753" stop-color="#35D644"/>
<stop offset="0.741068" stop-color="#02CAED"/>
<stop offset="0.912275" stop-color="#0785DB"/>
<stop offset="1" stop-color="#0B62D8"/>
</radialGradient>
<radialGradient id="paint2_angular_4945_3643" cx="0" cy="0" r="1" gradientUnits="userSpaceOnUse" gradientTransform="translate(58.4926 62.4417) rotate(-13.7112) scale(58.3538 61.7599)">
<stop offset="0.105344" stop-color="#6528C9"/>
<stop offset="0.190417" stop-color="#D130D0"/>
<stop offset="0.276765" stop-color="#FF542F"/>
<stop offset="0.395025" stop-color="#FEA810"/>
<stop offset="0.499299" stop-color="#DCC419"/>
<stop offset="0.630753" stop-color="#35D644"/>
<stop offset="0.741068" stop-color="#02CAED"/>
<stop offset="0.912275" stop-color="#0785DB"/>
<stop offset="1" stop-color="#0B62D8"/>
</radialGradient>
</defs>
</svg>
