<svg width="20" height="20" viewBox="0 0 20 20" fill="none" xmlns="http://www.w3.org/2000/svg">
<path d="M3.27812 7.91667H14.9448V9.58333H16.6115V4.58333C16.6115 3.66667 15.8615 2.91667 14.9448 2.91667H14.1115V1.25H12.4448V2.91667H5.77812V1.25H4.11145V2.91667H3.27812C2.35312 2.91667 1.61978 3.66667 1.61978 4.58333L1.61145 16.25C1.61145 17.1667 2.35312 17.9167 3.27812 17.9167H9.11145V16.25H3.27812V7.91667ZM3.27812 4.58333H14.9448V6.25H3.27812V4.58333ZM18.1448 13.15L17.5531 13.7417L15.7865 11.975L16.3781 11.3833C16.7031 11.0583 17.2281 11.0583 17.5531 11.3833L18.1448 11.975C18.4698 12.3 18.4698 12.825 18.1448 13.15ZM15.1948 12.5667L16.9615 14.3333L12.5448 18.75H10.7781V16.9833L15.1948 12.5667Z" fill="#8E8E93"/>
</svg>
