<svg width="158" height="158" viewBox="0 0 158 158" fill="none" xmlns="http://www.w3.org/2000/svg">
<path d="M15 78.9988C15 114.345 43.6529 142.998 78.9988 142.998C114.345 142.998 143 114.344 143 78.9988C143 43.653 114.345 15 78.9988 15C43.6529 15 15 43.6529 15 78.9988Z" fill="#0C0C4F" stroke="#EC796B" stroke-width="4"/>
<path fill-rule="evenodd" clip-rule="evenodd" d="M50.0374 63.5298L51.6582 58.5222C51.9877 57.5036 52.7915 56.7111 53.8138 56.3986L58.8459 54.8511C59.5424 54.6384 59.5481 53.6557 58.8572 53.4317L53.8477 51.8107C52.8311 51.4813 52.0385 50.6774 51.7241 49.6552L50.1785 44.6231C49.9658 43.9285 48.9831 43.9209 48.759 44.6137L47.1382 49.6214C46.8087 50.6379 46.0049 51.4305 44.9826 51.7449L39.9505 53.2905C39.254 53.5051 39.2464 54.4859 39.9392 54.7099L44.9487 56.3308C45.9653 56.6603 46.7579 57.466 47.0723 58.4882L48.6179 63.5185C48.8306 64.215 49.8133 64.2225 50.0374 63.5298Z" fill="#FAFAFA"/>
<path fill-rule="evenodd" clip-rule="evenodd" d="M129.575 60.6153C127.5 58.2955 124.263 56.9894 121.115 56.4538C117.943 55.9394 114.616 55.9871 111.484 56.5436C105.146 57.6156 99.3886 60.2398 94.3667 63.4771C91.759 65.0659 89.5351 66.9042 87.2311 68.7765C86.121 69.7234 85.1089 70.7318 84.0548 71.7257L81.1746 74.5914C78.045 77.8626 74.9604 80.8421 71.9759 83.3118C68.9793 85.77 66.1777 87.6371 63.4167 88.941C60.6575 90.2515 57.7051 91.0223 53.8569 91.1456C50.0425 91.2802 45.5296 90.5917 40.7023 89.4554C35.8491 88.3241 30.7527 86.7116 25.0577 85.324C27.0448 90.8368 30.0372 95.7086 33.8791 100.162C37.766 104.538 42.6196 108.526 48.8548 111.149C54.9999 113.831 62.7222 114.793 69.9429 113.341C77.1827 111.947 83.536 108.598 88.6714 104.723C93.8201 100.809 97.9856 96.3503 101.497 91.7151C102.466 90.4344 102.979 89.7177 103.681 88.7167L105.62 85.8446C106.967 84.0681 108.194 82.0453 109.527 80.2852C112.142 76.5988 114.72 72.9166 117.716 69.5243C119.224 67.8037 120.814 66.1579 122.69 64.5763C123.626 63.8043 124.638 63.0488 125.758 62.3682C126.895 61.6341 128.096 61.0596 129.575 60.6153Z" fill="#EC796B"/>
<path fill-rule="evenodd" clip-rule="evenodd" d="M129.575 60.6151C127.347 54.9914 123.203 50.2576 117.642 46.7644C112.115 43.3096 104.438 41.5465 96.8302 43.0494C93.0723 43.7763 89.4313 45.1756 86.2361 47.0391C83.0554 48.8952 80.2052 51.1295 77.7377 53.5265C76.5059 54.7291 75.3878 55.9835 74.277 57.245L71.398 60.9155L66.9514 66.8242C61.2826 74.4264 55.1781 83.3357 45.1602 85.9755C35.3256 88.5672 31.0601 86.2719 25.0577 85.3237C26.1552 88.1573 27.5147 90.9091 29.3577 93.3299C31.1664 95.7997 33.3029 98.1191 35.9589 100.108C37.3012 101.063 38.7183 102.006 40.2922 102.805C41.859 103.577 43.5486 104.257 45.3521 104.768C48.9394 105.752 52.9781 106.097 56.8885 105.567C60.8008 105.045 64.5402 103.806 67.8088 102.159C71.1016 100.528 73.9699 98.5414 76.5312 96.4452C81.6225 92.2171 85.5826 87.5454 88.9278 82.8232C90.6105 80.4622 92.1378 78.0566 93.5504 75.6504L95.213 72.7857C95.7212 71.9483 96.2353 71.1057 96.7571 70.3211C98.8641 67.1685 100.925 64.6407 103.427 62.7433C105.895 60.7968 109.332 59.3588 113.924 59.0247C118.497 58.6866 123.777 59.3111 129.575 60.6151Z" fill="#FAFAFA"/>
<path fill-rule="evenodd" clip-rule="evenodd" d="M104.834 107.34C104.834 111.471 108.184 114.821 112.314 114.821C116.445 114.821 119.79 111.471 119.79 107.34C119.79 103.21 116.445 99.8596 112.314 99.8596C108.184 99.8596 104.834 103.21 104.834 107.34Z" fill="#EC796B"/>
</svg>
