<svg width="12" height="12" viewBox="0 0 12 12" fill="none" xmlns="http://www.w3.org/2000/svg">
<path d="M6.21 10.705L10.71 6.205C10.89 6.025 11 5.775 11 5.5V2C11 1.45 10.55 1 10 1L6.5 1C6.225 1 5.975 1.11 5.79 1.295L1.29 5.795C1.11 5.975 1 6.225 1 6.5C1 6.775 1.11 7.025 1.295 7.205L4.795 10.705C4.975 10.89 5.225 11 5.5 11C5.775 11 6.03 10.885 6.21 10.705ZM1.995 6.5L6.5 2H10V5.5H10.005L5.505 10L1.995 6.5Z" fill="#63B1FF"/>
<path d="M8 3.25C8 3.66421 8.33579 4 8.75 4C9.16421 4 9.5 3.66421 9.5 3.25C9.5 2.83579 9.16421 2.5 8.75 2.5C8.33579 2.5 8 2.83579 8 3.25Z" fill="#63B1FF"/>
</svg>
